<svg width="600" height="443" viewBox="0 0 600 443" fill="none" xmlns="http://www.w3.org/2000/svg">
<g opacity="0.1">
<path d="M69.8027 1.75452C69.6782 5.73747 69.4293 9.72041 69.4293 13.5789C69.4293 16.4416 68.6824 19.4288 71.4207 21.0469C71.9186 21.4203 72.5409 21.1714 73.0388 20.798C75.5281 18.8065 74.159 14.948 73.9101 12.2097C73.4122 8.6002 72.7899 5.11512 72.292 1.50557C72.0431 0.011965 69.9271 0.509849 69.8027 1.75452Z" fill="black"/>
<path d="M64.9482 12.4585C67.5205 12.5414 70.0514 12.6659 72.5407 12.8319C74.9056 12.9563 77.2704 13.2052 79.5108 12.7074C81.0044 12.334 81.0044 10.0936 79.5108 9.72018C77.2704 9.09784 74.9056 9.47124 72.5407 9.5957C70.0514 9.67868 67.5205 9.80317 64.9482 9.96913C63.3301 9.96913 63.3301 12.334 64.9482 12.4585Z" fill="black"/>
<path d="M365.785 116.887C365.91 119.998 365.661 122.985 365.287 126.097C364.914 128.587 364.167 131.574 365.038 134.063C365.536 135.557 367.528 136.428 368.772 135.059C372.755 130.453 370.764 121.741 369.27 116.513C368.772 114.522 365.785 114.895 365.785 116.887Z" fill="black"/>
<path d="M361.305 128.089C363.919 128.338 366.657 128.711 369.271 128.96C371.884 129.209 374.249 129.831 376.863 129.458C378.855 129.084 379.228 125.848 377.485 124.977C372.507 122.736 365.91 123.981 360.931 125.35C359.313 125.724 359.811 127.964 361.305 128.089Z" fill="black"/>
<path d="M266.585 29.5109C266.834 32.3737 266.709 35.2364 266.087 38.0992C265.714 40.4641 264.469 42.4555 265.091 44.8204C265.34 46.1895 266.958 46.4385 267.954 45.6917C270.07 43.9491 270.07 40.5885 270.319 38.0992C270.568 35.112 270.319 32.1247 269.821 29.0131C269.572 27.2705 266.585 27.6439 266.585 29.5109Z" fill="black"/>
<path d="M263.1 37.8497C265.424 38.0986 267.788 38.306 270.195 38.472C272.311 38.5965 274.302 39.0943 276.294 38.0986C277.538 37.4763 277.538 35.4848 276.294 34.8625C274.302 33.8667 272.311 34.3646 270.195 34.489C267.788 34.655 265.424 34.8624 263.1 35.1114C261.233 35.2358 261.233 37.7252 263.1 37.8497Z" fill="black"/>
<path d="M346.368 22.7892C351.223 22.7892 351.223 15.3212 346.368 15.3212C341.639 15.3212 341.639 22.7892 346.368 22.7892Z" fill="black"/>
<path d="M345.995 38.7211C345.912 38.4722 345.788 38.2647 345.622 38.0988C344.75 36.7296 342.884 36.7296 342.012 38.0988C341.846 38.2647 341.722 38.4722 341.639 38.7211C340.519 40.3392 341.888 42.5796 343.755 42.5796C345.746 42.5796 347.115 40.3392 345.995 38.7211Z" fill="black"/>
<path d="M368.399 221.315C368.565 221.315 368.731 221.273 368.897 221.191C370.515 221.066 371.759 219.075 371.759 217.457C371.635 215.963 370.639 213.971 368.897 213.722C368.731 213.722 368.565 213.681 368.399 213.598C365.91 213.349 363.42 214.718 363.42 217.457C363.42 218.452 363.918 219.572 364.54 220.319C365.661 221.315 367.03 221.564 368.399 221.315Z" fill="black"/>
<path d="M285.357 1.75428C285.232 5.73722 284.983 9.72017 284.983 13.5786C284.983 16.4414 284.237 19.4286 286.975 21.0467C287.473 21.4201 288.095 21.1711 288.593 20.7977C291.082 18.8063 289.713 14.9478 289.464 12.2095C288.966 8.59996 288.344 5.11487 287.846 1.50533C287.597 0.0117209 285.481 0.509604 285.357 1.75428Z" fill="black"/>
<path d="M280.502 12.4582C283.075 12.5412 285.605 12.6657 288.095 12.8316C290.46 12.9561 292.825 13.205 295.065 12.7071C296.559 12.3337 296.559 10.0933 295.065 9.71993C292.825 9.0976 290.46 9.47099 288.095 9.59546C285.605 9.67844 283.075 9.80293 280.502 9.96888C278.884 9.96888 278.884 12.3338 280.502 12.4582Z" fill="black"/>
<path d="M173.71 157.463C173.088 160.326 173.088 162.815 172.963 165.802C172.963 168.167 171.719 171.279 173.959 173.021C174.706 173.519 175.453 173.768 176.199 173.27C176.365 173.187 176.573 173.104 176.822 173.021C177.693 172.524 178.066 171.528 178.191 170.657C178.191 168.043 178.066 165.553 177.817 163.064C177.444 160.699 176.822 159.206 175.701 157.214C175.204 156.467 173.959 156.467 173.71 157.463Z" fill="black"/>
<path d="M167.486 167.421C171.345 167.296 175.203 167.794 178.937 168.666C179.809 168.915 180.804 168.79 181.427 168.043C182.049 167.172 182.422 166.674 182.049 165.554C181.676 164.434 180.804 163.811 179.56 163.687C175.452 163.313 171.22 163.314 166.989 163.936C164.997 164.185 165.619 167.421 167.486 167.421Z" fill="black"/>
<path d="M581.339 116.886C581.464 119.998 581.215 122.985 580.841 126.097C580.468 128.586 579.721 131.573 580.592 134.063C581.09 135.556 583.082 136.428 584.326 135.059C588.309 130.453 586.318 121.741 584.824 116.513C584.326 114.522 581.339 114.895 581.339 116.886Z" fill="black"/>
<path d="M576.859 128.088C579.473 128.337 582.211 128.711 584.825 128.96C587.438 129.209 589.803 129.831 592.417 129.457C594.409 129.084 594.782 125.848 593.04 124.977C588.061 122.736 581.464 123.981 576.485 125.35C574.867 125.723 575.365 127.964 576.859 128.088Z" fill="black"/>
<path d="M482.139 29.5107C482.388 32.3734 482.263 35.2362 481.641 38.0989C481.268 40.4638 480.023 42.4553 480.645 44.8202C480.894 46.1893 482.512 46.4382 483.508 45.6914C485.624 43.9489 485.624 40.5883 485.873 38.0989C486.122 35.1117 485.873 32.1245 485.375 29.0128C485.126 27.2703 482.139 27.6437 482.139 29.5107Z" fill="black"/>
<path d="M478.654 37.8494C480.978 38.0983 483.343 38.3058 485.749 38.4718C487.865 38.5962 489.856 39.0941 491.848 38.0984C493.092 37.476 493.092 35.4845 491.848 34.8622C489.856 33.8665 487.865 34.3643 485.749 34.4888C483.343 34.6547 480.978 34.8622 478.654 35.1111C476.787 35.2356 476.787 37.7249 478.654 37.8494Z" fill="black"/>
<path d="M188.023 47.3094C193.624 47.3094 193.624 38.7211 188.023 38.7211C182.547 38.7211 182.547 47.3094 188.023 47.3094Z" fill="black"/>
<path d="M561.922 22.789C566.777 22.789 566.777 15.321 561.922 15.321C557.193 15.321 557.193 22.789 561.922 22.789Z" fill="black"/>
<path d="M561.549 38.7209C561.466 38.4719 561.342 38.2645 561.176 38.0985C560.305 36.7294 558.438 36.7294 557.566 38.0985C557.4 38.2645 557.276 38.4719 557.193 38.7209C556.073 40.3389 557.442 42.5793 559.309 42.5793C561.3 42.5793 562.669 40.3389 561.549 38.7209Z" fill="black"/>
<path d="M583.953 221.315C584.119 221.315 584.285 221.273 584.451 221.19C586.069 221.066 587.314 219.074 587.314 217.456C587.189 215.963 586.193 213.971 584.451 213.722C584.285 213.722 584.119 213.681 583.953 213.598C581.464 213.349 578.974 214.718 578.974 217.456C578.974 218.452 579.472 219.572 580.095 220.319C581.215 221.315 582.584 221.564 583.953 221.315Z" fill="black"/>
<path d="M182.796 200.031C186.53 200.031 186.53 194.181 182.796 194.181C179.062 194.181 179.062 200.031 182.796 200.031Z" fill="black"/>
<path d="M69.8027 222.575C69.6782 226.558 69.4293 230.541 69.4293 234.399C69.4293 237.262 68.6824 240.249 71.4207 241.867C71.9186 242.241 72.5409 241.992 73.0388 241.618C75.5281 239.627 74.159 235.768 73.9101 233.03C73.4122 229.421 72.7899 225.936 72.292 222.326C72.0431 220.832 69.9271 221.33 69.8027 222.575Z" fill="black"/>
<path d="M64.9482 233.279C67.5205 233.362 70.0514 233.486 72.5407 233.652C74.9056 233.777 77.2704 234.026 79.5108 233.528C81.0044 233.154 81.0044 230.914 79.5108 230.541C77.2704 229.918 74.9056 230.292 72.5407 230.416C70.0514 230.499 67.5205 230.624 64.9482 230.79C63.3301 230.79 63.3301 233.154 64.9482 233.279Z" fill="black"/>
<path d="M365.785 337.707C365.91 340.819 365.661 343.806 365.287 346.918C364.914 349.407 364.167 352.394 365.038 354.883C365.536 356.377 367.528 357.248 368.772 355.879C372.755 351.274 370.764 342.561 369.27 337.334C368.772 335.342 365.785 335.716 365.785 337.707Z" fill="black"/>
<path d="M361.305 348.909C363.919 349.158 366.657 349.531 369.271 349.78C371.884 350.029 374.249 350.652 376.863 350.278C378.855 349.905 379.228 346.669 377.485 345.797C372.507 343.557 365.91 344.802 360.931 346.171C359.313 346.544 359.811 348.785 361.305 348.909Z" fill="black"/>
<path d="M266.585 250.331C266.834 253.194 266.709 256.057 266.087 258.92C265.714 261.285 264.469 263.276 265.091 265.641C265.34 267.01 266.958 267.259 267.954 266.512C270.07 264.77 270.07 261.409 270.319 258.92C270.568 255.932 270.319 252.945 269.821 249.834C269.572 248.091 266.585 248.464 266.585 250.331Z" fill="black"/>
<path d="M263.1 258.67C265.424 258.919 267.788 259.126 270.195 259.292C272.311 259.417 274.302 259.915 276.294 258.919C277.538 258.297 277.538 256.305 276.294 255.683C274.302 254.687 272.311 255.185 270.195 255.309C267.788 255.475 265.424 255.683 263.1 255.932C261.233 256.056 261.233 258.546 263.1 258.67Z" fill="black"/>
<path d="M346.368 243.61C351.223 243.61 351.223 236.142 346.368 236.142C341.639 236.142 341.639 243.61 346.368 243.61Z" fill="black"/>
<path d="M345.995 259.542C345.912 259.293 345.788 259.085 345.622 258.919C344.75 257.55 342.884 257.55 342.012 258.919C341.846 259.085 341.722 259.293 341.639 259.542C340.519 261.16 341.888 263.4 343.755 263.4C345.746 263.4 347.115 261.16 345.995 259.542Z" fill="black"/>
<path d="M368.399 442.135C368.565 442.135 368.731 442.093 368.897 442.01C370.515 441.886 371.759 439.894 371.759 438.276C371.635 436.783 370.639 434.791 368.897 434.542C368.731 434.542 368.565 434.501 368.399 434.418C365.909 434.169 363.42 435.538 363.42 438.276C363.42 439.272 363.918 440.392 364.54 441.139C365.661 442.135 367.03 442.384 368.399 442.135Z" fill="black"/>
<path d="M285.357 222.575C285.232 226.558 284.983 230.541 284.983 234.399C284.983 237.262 284.236 240.249 286.975 241.867C287.472 242.241 288.095 241.992 288.593 241.618C291.082 239.627 289.713 235.768 289.464 233.03C288.966 229.421 288.344 225.936 287.846 222.326C287.597 220.832 285.481 221.33 285.357 222.575Z" fill="black"/>
<path d="M280.502 233.279C283.074 233.362 285.605 233.486 288.095 233.652C290.459 233.777 292.824 234.026 295.065 233.528C296.558 233.154 296.558 230.914 295.065 230.541C292.824 229.918 290.459 230.292 288.095 230.416C285.605 230.499 283.074 230.624 280.502 230.79C278.884 230.79 278.884 233.154 280.502 233.279Z" fill="black"/>
<path d="M173.71 378.283C173.087 381.146 173.087 383.635 172.963 386.622C172.963 388.987 171.718 392.099 173.959 393.841C174.705 394.339 175.452 394.588 176.199 394.09C176.365 394.007 176.572 393.924 176.821 393.841C177.693 393.343 178.066 392.348 178.191 391.476C178.191 388.863 178.066 386.373 177.817 383.884C177.444 381.519 176.821 380.026 175.701 378.034C175.203 377.287 173.959 377.287 173.71 378.283Z" fill="black"/>
<path d="M167.486 388.241C171.345 388.116 175.203 388.614 178.937 389.486C179.808 389.734 180.804 389.61 181.427 388.863C182.049 387.992 182.422 387.494 182.049 386.374C181.675 385.254 180.804 384.631 179.56 384.507C175.452 384.133 171.22 384.133 166.988 384.756C164.997 385.005 165.619 388.241 167.486 388.241Z" fill="black"/>
<path d="M581.339 337.707C581.464 340.819 581.215 343.806 580.841 346.918C580.468 349.407 579.721 352.394 580.592 354.883C581.09 356.377 583.082 357.248 584.326 355.879C588.309 351.274 586.318 342.561 584.824 337.334C584.326 335.342 581.339 335.716 581.339 337.707Z" fill="black"/>
<path d="M576.859 348.909C579.472 349.158 582.211 349.531 584.825 349.78C587.438 350.029 589.803 350.652 592.417 350.278C594.409 349.905 594.782 346.669 593.039 345.797C588.061 343.557 581.464 344.802 576.485 346.171C574.867 346.544 575.365 348.785 576.859 348.909Z" fill="black"/>
<path d="M482.139 250.331C482.388 253.194 482.263 256.057 481.641 258.92C481.267 261.285 480.023 263.276 480.645 265.641C480.894 267.01 482.512 267.259 483.508 266.512C485.624 264.77 485.624 261.409 485.873 258.92C486.122 255.932 485.873 252.945 485.375 249.834C485.126 248.091 482.139 248.464 482.139 250.331Z" fill="black"/>
<path d="M478.654 258.67C480.977 258.919 483.342 259.126 485.749 259.292C487.865 259.417 489.856 259.915 491.848 258.919C493.092 258.297 493.092 256.305 491.848 255.683C489.856 254.687 487.865 255.185 485.749 255.309C483.342 255.475 480.977 255.683 478.654 255.932C476.787 256.056 476.787 258.546 478.654 258.67Z" fill="black"/>
<path d="M188.023 268.13C193.624 268.13 193.624 259.542 188.023 259.542C182.546 259.542 182.546 268.13 188.023 268.13Z" fill="black"/>
<path d="M561.922 243.61C566.777 243.61 566.777 236.142 561.922 236.142C557.193 236.142 557.193 243.61 561.922 243.61Z" fill="black"/>
<path d="M561.549 259.542C561.466 259.293 561.342 259.085 561.176 258.919C560.304 257.55 558.437 257.55 557.566 258.919C557.4 259.085 557.276 259.293 557.193 259.542C556.073 261.16 557.442 263.4 559.309 263.4C561.3 263.4 562.669 261.16 561.549 259.542Z" fill="black"/>
<path d="M583.953 442.135C584.119 442.135 584.285 442.093 584.451 442.01C586.069 441.886 587.313 439.894 587.313 438.276C587.189 436.783 586.193 434.791 584.451 434.542C584.285 434.542 584.119 434.501 583.953 434.418C581.463 434.169 578.974 435.538 578.974 438.276C578.974 439.272 579.472 440.392 580.094 441.139C581.214 442.135 582.584 442.384 583.953 442.135Z" fill="black"/>
<path d="M182.796 420.851C186.53 420.851 186.53 415.001 182.796 415.001C179.061 415.001 179.061 420.851 182.796 420.851Z" fill="black"/>
</g>
</svg>
