<svg width="1245" height="1492" viewBox="0 0 1245 1492" fill="none" xmlns="http://www.w3.org/2000/svg">
<path opacity="0.7" d="M871.597 1483.25L741.506 745.998L995.241 1449.9L871.597 1483.25ZM677.495 1492.01L871.597 1483.25L741.506 746.017L677.495 1492.01ZM611.401 1483.25L741.487 745.998L487.753 1449.93L611.401 1483.25ZM487.753 1449.93L741.506 745.998L315.328 1359.87L487.753 1449.93ZM262.426 1319.05L741.487 746.017L171.92 1227.97L262.426 1319.05ZM171.92 1227.97L741.506 745.998L67.3372 1063.24L171.92 1227.97ZM41.8332 1001.27L741.487 745.998L0 810.399L41.8332 1001.27ZM0 810.399L741.487 746.017L0 681.616V810.399ZM8.71172 615.117L741.506 745.998L62.7188 425.417L8.71172 615.117ZM67.3372 428.772L741.487 746.017L131.35 317.244L67.3372 428.772ZM171.92 264.021L741.487 745.998L262.426 172.965L171.92 264.021ZM262.426 172.965L741.506 746.017L426.181 67.7466L262.426 172.965ZM487.753 42.0876L741.487 745.998L611.401 8.76474L487.753 42.0876ZM611.401 8.76474L741.487 745.998L805.499 0L611.401 8.76474ZM871.597 8.74355L741.506 745.998L995.222 42.0876L871.597 8.74355ZM995.222 42.0876L741.487 745.998L1167.67 132.148L995.222 42.0876ZM1220.55 172.965L741.487 745.998L1311.05 264.021L1220.55 172.965ZM1311.05 264.021L741.487 745.998L1415.64 428.751L1311.05 264.021ZM1441.16 490.718L741.487 745.998L1474.29 615.117L1441.16 490.718ZM1474.29 615.117L741.506 745.998L1483 810.374L1474.29 615.117ZM1474.29 876.894L741.487 746.017L1441.15 1001.29L1474.29 876.894ZM1441.15 1001.29L741.487 745.998L1351.65 1174.77L1441.15 1001.29ZM1311.07 1227.97L741.487 745.998L1220.55 1319.02L1311.07 1227.97ZM1220.55 1319.02L741.487 745.998L1056.82 1424.24L1220.55 1319.02Z" fill="url(#paint0_radial_11_6793)"/>
<defs>
<radialGradient id="paint0_radial_11_6793" cx="0" cy="0" r="1" gradientUnits="userSpaceOnUse" gradientTransform="translate(741.5 701.587) rotate(89.951) scale(584.413 580.884)">
<stop stop-color="#6CAB74"/>
<stop offset="1" stop-color="white" stop-opacity="0"/>
</radialGradient>
</defs>
</svg>
